<svg width="23" height="23" viewBox="0 0 23 23" fill="none" xmlns="http://www.w3.org/2000/svg">
    <path fill-rule="evenodd" clip-rule="evenodd" d="M0.43934 20.2383C-0.146447 20.8241 -0.146447 21.7739 0.43934 22.3597C1.02513 22.9454 1.97487 22.9454 2.56066 22.3597L11.46 13.4603L20.3593 22.3597C20.945 22.9454 21.8948 22.9454 22.4806 22.3597C23.0664 21.7739 23.0664 20.8241 22.4806 20.2383L13.5813 11.339L22.3596 2.56066C22.9454 1.97487 22.9454 1.02513 22.3596 0.43934C21.7739 -0.146447 20.8241 -0.146446 20.2383 0.43934L11.46 9.21771L2.68159 0.43934C2.09581 -0.146446 1.14606 -0.146447 0.560272 0.43934C-0.0255143 1.02513 -0.0255137 1.97487 0.560272 2.56066L9.33864 11.339L0.43934 20.2383Z" fill="#222222"/>
</svg>