<svg id="icon-sunglasses" xmlns="http://www.w3.org/2000/svg" viewBox="0 0 62 29">
    <g fill="none" fill-rule="evenodd" transform="translate(.27 1.368)">
        <path stroke="#34444C" stroke-linecap="round" stroke-width="2.394" d="M6.828 12.968L18.88.995c1.293-1.04 2.65-1.265 4.07-.673 2.132.887 2.476 2.46 2.476 4.92"/>
        <ellipse cx="9.942" cy="17.534" fill="#F68C50" rx="9.942" ry="10.091"/><ellipse cx="33.664" cy="17.534" fill="#F68C50" rx="9.942" ry="10.091"/><path stroke="#F9ED43" stroke-linecap="round" stroke-width="2.394" d="M10.584 10.222c-4.337 0-7.853 3.568-7.853 7.97m31.575-7.97c-2.519 0-4.76 1.204-6.197 3.075"/>
        <path stroke="#34444C" stroke-linecap="round" stroke-width="2.394" d="M25.62 18.023c0-1.5-1.712-2.717-3.823-2.717-2.112 0-3.824 1.216-3.824 2.717m23.851-1.59L53.876 4.46c1.293-1.04 2.65-1.265 4.071-.673 2.132.887 2.476 2.461 2.476 4.92"/>
    </g>
</svg>