<svg xmlns="http://www.w3.org/2000/svg" viewBox="0 0 15 15">
    <path fill="#F68C50" d="M1.7,0h11.7C14.3,0,15,0.7,15,1.7v11.7c0,0.9-0.7,1.7-1.7,1.7H1.7C0.7,15,0,14.3,0,13.3V1.7C0,0.7,0.7,0,1.7,0z"/>
    <path fill="#34444C" d="M4.5,2.9L4.6,3l2.9,2.9L10.4,3c0.5-0.5,1.2-0.5,1.6,0c0.4,0.4,0.4,1.1,0.1,1.5L12,4.6L9.1,7.5l2.9,2.9c0.5,0.5,0.5,1.2,0,1.6c-0.4,0.4-1.1,0.4-1.5,0.1L10.4,12L7.5,9.1L4.6,12c-0.5,0.5-1.2,0.5-1.6,0c-0.4-0.4-0.4-1.1-0.1-1.5L3,10.4l2.9-2.9L3,4.6C2.6,4.2,2.6,3.5,3,3c0.4-0.4,1-0.4,1.4-0.2L4.5,2.9z"/>
</svg>
