<svg width="30" height="32" viewBox="0 0 30 32" fill="none" xmlns="http://www.w3.org/2000/svg">
    <circle cx="11.5" cy="11.5" r="9.5" stroke="#222222" stroke-width="3"/>
    <path d="M18.5714 20.1246L19.552 20.3207C19.6176 19.9929 19.5149 19.6539 19.2785 19.4175L18.5714 20.1246ZM18.0536 22.7139L17.073 22.5178C17.0123 22.821 17.0954 23.1352 17.2979 23.3688L18.0536 22.7139ZM24.7856 30.4817L24.0299 31.1366C24.3903 31.5523 25.0187 31.599 25.4364 31.2409L24.7856 30.4817ZM28.4106 27.3746L29.0614 28.1338C29.2628 27.9612 29.3873 27.7157 29.4077 27.4513C29.428 27.1868 29.3425 26.9251 29.1699 26.7238L28.4106 27.3746ZM22.9556 19.4738C22.5962 19.0545 21.9649 19.006 21.5456 19.3654C21.1263 19.7248 21.0777 20.3561 21.4371 20.7754L22.9556 19.4738ZM15.7929 18.7603L17.8643 20.8317L19.2785 19.4175L17.2071 17.3461L15.7929 18.7603ZM17.5908 19.9285L17.073 22.5178L19.0341 22.91L19.552 20.3207L17.5908 19.9285ZM17.2979 23.3688L24.0299 31.1366L25.5413 29.8267L18.8092 22.059L17.2979 23.3688ZM25.4364 31.2409L29.0614 28.1338L27.7598 26.6153L24.1348 29.7224L25.4364 31.2409ZM29.1699 26.7238L22.9556 19.4738L21.4371 20.7754L27.6513 28.0254L29.1699 26.7238Z" fill="#222222"/>
</svg>
